<?xml version="1.0" encoding="UTF-8"?>
<svg id="Layer_1" xmlns="http://www.w3.org/2000/svg" version="1.1" viewBox="0 0 904.3 575.4">
  <!-- Generator: Adobe Illustrator 29.1.0, SVG Export Plug-In . SVG Version: 2.1.0 Build 142)  -->
  <path d="M19.8,170.1h223.9c-14.2,147.4,112.2,238.1,112.2,238.1h171.3s136.1-45.4,113.4-238.1h223.9" fill="none" stroke="#000" stroke-miterlimit="10"/>
  <g>
    <path d="M356,408.2s.8,1.2,3.9,4.5" fill="none" stroke="#b3b3b3" stroke-miterlimit="10"/>
    <path d="M368.3,421.4c10.9,10.8,31,29.5,67.5,61.1" fill="none" stroke="#b3b3b3" stroke-dasharray="12.1 12.1" stroke-miterlimit="10"/>
    <path d="M440.5,486.5c1.5,1.3,3,2.6,4.6,3.9l4.2-4.2" fill="none" stroke="#b3b3b3" stroke-miterlimit="10"/>
    <line x1="457.5" y1="478" x2="518.9" y2="416.5" fill="none" stroke="#b3b3b3" stroke-dasharray="11.6 11.6" stroke-miterlimit="10"/>
    <line x1="523" y1="412.4" x2="527.2" y2="408.2" fill="none" stroke="#b3b3b3" stroke-miterlimit="10"/>
  </g>
  <g>
    <path d="M210.5,436.7c.7,0,1.3-.2,1.7-.6.4-.4.7-.9.9-1.5.1-.6.2-1.7.2-3.2,0-1.5,0-2.5,0-3,0-.8.2-1.4.5-1.8.2-.5.5-.8.8-1.1.3-.3.7-.5,1.3-.6.3,0,.9-.1,1.7-.1h.8v2.1h-.4c-.9,0-1.6.2-1.9.5-.3.3-.5,1.1-.5,2.3,0,2.4,0,3.9-.2,4.5-.2,1-.4,1.7-.8,2.3-.4.5-1,1-1.9,1.4,1,.4,1.7,1.1,2.2,1.9s.7,2.3.7,4.2,0,2.8,0,3.2c0,.6.3,1.1.6,1.3.3.2.9.4,1.7.4h.4v2.1h-.8c-.9,0-1.5,0-1.9-.2-.6-.2-1.1-.5-1.4-1-.4-.5-.6-1.1-.7-1.8-.1-.7-.2-1.9-.2-3.5,0-1.6,0-2.8-.2-3.4-.1-.6-.4-1.1-.9-1.5-.4-.4-1-.6-1.7-.6v-2.2Z"/>
    <path d="M219.9,436.7c.7,0,1.3-.2,1.7-.6.4-.4.7-.9.9-1.5.1-.6.2-1.7.2-3.2,0-1.5,0-2.5,0-3,0-.8.2-1.4.5-1.8.2-.5.5-.8.8-1.1.3-.3.7-.5,1.3-.6.3,0,.9-.1,1.7-.1h.8v2.1h-.4c-.9,0-1.6.2-1.9.5-.3.3-.5,1.1-.5,2.3,0,2.4,0,3.9-.2,4.5-.2,1-.4,1.7-.8,2.3-.4.5-1,1-1.9,1.4,1,.4,1.7,1.1,2.2,1.9s.7,2.3.7,4.2,0,2.8,0,3.2c0,.6.3,1.1.6,1.3.3.2.9.4,1.7.4h.4v2.1h-.8c-.9,0-1.5,0-1.9-.2-.6-.2-1.1-.5-1.4-1-.4-.5-.6-1.1-.7-1.8-.1-.7-.2-1.9-.2-3.5,0-1.6,0-2.8-.2-3.4-.1-.6-.4-1.1-.9-1.5-.4-.4-1-.6-1.7-.6v-2.2Z"/>
    <path d="M234.3,445l-5.5-14.5h2.6l3.1,8.7c.3.9.6,1.9.9,2.9.2-.8.5-1.7.9-2.8l3.2-8.9h2.5l-5.5,14.5h-2.3Z"/>
    <path d="M243.7,438.6l2.5-.2c.1,1,.4,1.8.8,2.5.4.6,1.1,1.2,2,1.6.9.4,1.9.6,3.1.6s1.9-.2,2.7-.5c.8-.3,1.4-.7,1.7-1.2.4-.5.6-1.1.6-1.7s-.2-1.2-.5-1.6c-.4-.5-1-.9-1.8-1.2-.5-.2-1.7-.5-3.6-1-1.8-.4-3.1-.9-3.9-1.3-1-.5-1.7-1.1-2.1-1.9-.5-.7-.7-1.6-.7-2.5s.3-2,.9-2.8c.6-.9,1.4-1.5,2.5-2,1.1-.5,2.3-.7,3.7-.7s2.8.2,3.9.7,2,1.2,2.6,2.1c.6.9.9,2,1,3.2l-2.5.2c-.1-1.3-.6-2.2-1.4-2.9-.8-.6-2-1-3.5-1s-2.8.3-3.5.9c-.7.6-1.1,1.3-1.1,2.1s.3,1.3.8,1.8c.5.5,1.8.9,4,1.4,2.2.5,3.6.9,4.4,1.3,1.2.5,2,1.2,2.6,2,.6.8.8,1.8.8,2.9s-.3,2.1-.9,3c-.6.9-1.5,1.7-2.6,2.2-1.1.5-2.4.8-3.9.8s-3.3-.3-4.6-.8c-1.2-.5-2.2-1.3-2.9-2.4-.7-1.1-1.1-2.3-1.1-3.6Z"/>
    <path d="M263,445v-20h2.5v7.2c1.1-1.3,2.6-2,4.3-2s2,.2,2.8.6,1.4,1,1.7,1.8c.3.7.5,1.8.5,3.3v9.2h-2.5v-9.2c0-1.2-.3-2.1-.8-2.7s-1.3-.8-2.3-.8-1.4.2-2.1.6c-.6.4-1.1.9-1.4,1.5-.3.6-.4,1.5-.4,2.7v7.9h-2.5Z"/>
    <path d="M288,443.2c-.9.8-1.8,1.3-2.6,1.6-.8.3-1.7.5-2.7.5-1.6,0-2.8-.4-3.7-1.2-.9-.8-1.3-1.8-1.3-3s.2-1.4.5-1.9c.3-.6.7-1.1,1.3-1.4.5-.4,1.1-.6,1.8-.8.5-.1,1.2-.3,2.2-.4,2-.2,3.4-.5,4.4-.8,0-.3,0-.6,0-.6,0-1-.2-1.7-.7-2.1-.6-.6-1.6-.8-2.8-.8s-2,.2-2.6.6c-.6.4-1,1.1-1.2,2.2l-2.4-.3c.2-1,.6-1.9,1.1-2.5.5-.6,1.2-1.1,2.2-1.5.9-.3,2-.5,3.3-.5s2.2.1,3,.4c.8.3,1.3.7,1.7,1.1.4.4.6,1,.8,1.7,0,.4.1,1.2.1,2.3v3.3c0,2.3,0,3.7.2,4.3.1.6.3,1.2.6,1.7h-2.6c-.3-.5-.4-1.1-.5-1.8ZM287.8,437.8c-.9.4-2.2.7-4,.9-1,.1-1.7.3-2.1.5-.4.2-.7.4-1,.8-.2.4-.3.7-.3,1.2,0,.7.2,1.2.7,1.6.5.4,1.2.7,2.2.7s1.8-.2,2.5-.6c.7-.4,1.3-1,1.6-1.7.3-.6.4-1.4.4-2.5v-.9Z"/>
    <path d="M294.1,450.6v-20.1h2.2v1.9c.5-.7,1.1-1.3,1.8-1.7.7-.4,1.5-.6,2.4-.6s2.3.3,3.3,1c.9.6,1.7,1.5,2.1,2.7.5,1.2.7,2.4.7,3.8s-.3,2.8-.8,4-1.3,2.1-2.3,2.7c-1,.6-2.1,1-3.2,1s-1.6-.2-2.2-.5c-.7-.3-1.2-.8-1.6-1.3v7.1h-2.5ZM296.4,437.9c0,1.9.4,3.2,1.1,4.1.8.9,1.7,1.3,2.7,1.3s2-.5,2.8-1.4c.8-.9,1.2-2.4,1.2-4.3s-.4-3.2-1.1-4.2c-.8-.9-1.7-1.4-2.7-1.4s-2,.5-2.8,1.5c-.8,1-1.2,2.4-1.2,4.3Z"/>
    <path d="M309.7,427.8v-2.8h2.5v2.8h-2.5ZM309.7,445v-14.5h2.5v14.5h-2.5Z"/>
    <path d="M315.9,445v-14.5h2.2v2.1c1.1-1.6,2.6-2.4,4.6-2.4s1.7.2,2.4.5c.7.3,1.3.7,1.6,1.2.4.5.6,1.1.8,1.8,0,.5.1,1.3.1,2.4v8.9h-2.5v-8.8c0-1,0-1.8-.3-2.2-.2-.5-.5-.9-1-1.2-.5-.3-1.1-.4-1.7-.4-1,0-2,.3-2.7,1-.8.7-1.1,1.9-1.1,3.8v7.9h-2.5Z"/>
    <path d="M331,446.2l2.4.4c.1.7.4,1.3.8,1.6.6.5,1.4.7,2.5.7s2-.2,2.6-.7c.6-.5,1-1.1,1.3-1.9.1-.5.2-1.6.2-3.2-1.1,1.3-2.4,1.9-4,1.9s-3.5-.7-4.6-2.2c-1.1-1.4-1.6-3.2-1.6-5.2s.3-2.7.8-3.8c.5-1.2,1.2-2.1,2.2-2.7,1-.6,2.1-1,3.4-1s3.1.7,4.2,2.1v-1.8h2.3v12.6c0,2.3-.2,3.9-.7,4.8-.5.9-1.2,1.7-2.2,2.2s-2.2.8-3.7.8-3.1-.4-4.2-1.2-1.6-2-1.5-3.5ZM333.1,437.5c0,1.9.4,3.3,1.1,4.2.8.9,1.7,1.3,2.8,1.3s2.1-.4,2.8-1.3c.8-.9,1.1-2.2,1.1-4.1s-.4-3.1-1.2-4c-.8-.9-1.7-1.4-2.9-1.4s-2,.4-2.8,1.3-1.1,2.2-1.1,4Z"/>
    <path d="M347.4,445v-20h8.9c1.8,0,3.1.2,4.1.5.9.4,1.7,1,2.2,1.9.6.9.8,1.9.8,3s-.5,2.6-1.4,3.6c-.9,1-2.3,1.6-4.3,1.9.7.3,1.2.7,1.6,1,.8.7,1.5,1.6,2.2,2.7l3.5,5.5h-3.3l-2.7-4.2c-.8-1.2-1.4-2.1-1.9-2.8-.5-.6-1-1.1-1.3-1.3-.4-.3-.8-.4-1.2-.5-.3,0-.8,0-1.5,0h-3.1v8.9h-2.7ZM350.1,433.8h5.7c1.2,0,2.2-.1,2.8-.4.7-.3,1.2-.7,1.6-1.2.4-.6.5-1.2.5-1.8,0-.9-.3-1.7-1-2.3-.7-.6-1.8-.9-3.3-.9h-6.3v6.6Z"/>
    <path d="M366.4,437.8c0-2.7.7-4.7,2.2-6,1.2-1.1,2.8-1.6,4.6-1.6s3.6.7,4.9,2c1.3,1.3,1.9,3.1,1.9,5.4s-.3,3.3-.8,4.4c-.6,1.1-1.4,1.9-2.4,2.5-1.1.6-2.2.9-3.5.9-2,0-3.7-.7-4.9-2-1.3-1.3-1.9-3.2-1.9-5.6ZM368.9,437.8c0,1.9.4,3.3,1.2,4.2.8.9,1.8,1.4,3.1,1.4s2.2-.5,3-1.4c.8-.9,1.2-2.3,1.2-4.3s-.4-3.2-1.2-4.1c-.8-.9-1.8-1.4-3-1.4s-2.3.5-3.1,1.4c-.8.9-1.2,2.3-1.2,4.2Z"/>
    <path d="M385.5,445l-4.4-14.5h2.5l2.3,8.4.9,3.1c0-.2.3-1.2.8-3l2.3-8.5h2.5l2.2,8.4.7,2.8.8-2.8,2.5-8.4h2.4l-4.5,14.5h-2.6l-2.3-8.7-.6-2.5-2.9,11.2h-2.6Z"/>
    <path d="M402.1,440.7l2.4-.4c.1,1,.5,1.7,1.1,2.2.6.5,1.5.8,2.6.8s2-.2,2.5-.7c.5-.5.8-1,.8-1.6s-.2-1-.7-1.3c-.3-.2-1.2-.5-2.5-.8-1.8-.5-3.1-.8-3.8-1.2-.7-.3-1.2-.8-1.6-1.4-.4-.6-.5-1.2-.5-1.9s.1-1.2.4-1.8c.3-.6.7-1,1.2-1.4.4-.3.9-.5,1.6-.7.7-.2,1.4-.3,2.1-.3,1.1,0,2.1.2,3,.5s1.5.8,1.9,1.3.7,1.3.8,2.2l-2.4.3c-.1-.7-.4-1.3-1-1.8-.5-.4-1.3-.6-2.2-.6s-1.9.2-2.4.6c-.5.4-.7.8-.7,1.3s.1.6.3.9c.2.3.5.5.9.7.2,0,1,.3,2.2.6,1.7.5,3,.8,3.6,1.1.7.3,1.2.7,1.6,1.3.4.6.6,1.3.6,2.1s-.2,1.6-.7,2.3-1.2,1.3-2.1,1.7-1.9.6-3.1.6c-1.9,0-3.3-.4-4.3-1.2-1-.8-1.6-1.9-1.9-3.5Z"/>
    <path d="M423.8,436.7v2.2c-.7,0-1.3.2-1.7.6-.4.4-.7.9-.9,1.5-.1.6-.2,1.7-.2,3.2,0,1.5,0,2.5,0,3,0,.8-.2,1.4-.5,1.9-.2.5-.5.8-.8,1.1-.3.3-.7.5-1.3.6-.3.1-.9.2-1.7.2h-.8v-2.1h.4c.9,0,1.6-.2,1.9-.5.3-.3.5-1.1.5-2.3,0-2.3,0-3.7.1-4.3.1-1,.4-1.8.9-2.4.4-.6,1.1-1.1,1.9-1.4-1-.5-1.8-1.2-2.2-2-.4-.8-.6-2.2-.6-4.2s0-2.8,0-3.2c0-.6-.2-1-.5-1.3-.3-.2-.9-.4-1.7-.4h-.4v-2.1h.8c.9,0,1.5,0,1.9.2.6.2,1.1.5,1.4,1,.4.5.6,1.1.7,1.8.1.7.2,1.9.2,3.5,0,1.6,0,2.8.2,3.4.1.6.4,1.1.9,1.5.4.4,1,.6,1.7.6Z"/>
    <path d="M433.1,436.7v2.2c-.7,0-1.3.2-1.7.6-.4.4-.7.9-.9,1.5-.1.6-.2,1.7-.2,3.2,0,1.5,0,2.5,0,3,0,.8-.2,1.4-.5,1.9-.2.5-.5.8-.8,1.1-.3.3-.7.5-1.3.6-.3.1-.9.2-1.7.2h-.8v-2.1h.4c.9,0,1.6-.2,1.9-.5.3-.3.5-1.1.5-2.3,0-2.3,0-3.7.1-4.3.1-1,.4-1.8.9-2.4.4-.6,1.1-1.1,1.9-1.4-1-.5-1.8-1.2-2.2-2-.4-.8-.6-2.2-.6-4.2s0-2.8,0-3.2c0-.6-.2-1-.5-1.3-.3-.2-.9-.4-1.7-.4h-.4v-2.1h.8c.9,0,1.5,0,1.9.2.6.2,1.1.5,1.4,1,.4.5.6,1.1.7,1.8.1.7.2,1.9.2,3.5,0,1.6,0,2.8.2,3.4.1.6.4,1.1.9,1.5.4.4,1,.6,1.7.6Z"/>
    <path d="M446.4,445v-12.9h5.7c1.1,0,2,.1,2.6.3s1.1.6,1.4,1.2.5,1.2.5,1.9-.3,1.7-.9,2.3-1.5,1-2.7,1.2c.5.2.8.4,1,.6.5.5,1,1,1.4,1.7l2.2,3.5h-2.1l-1.7-2.7c-.5-.8-.9-1.4-1.2-1.8s-.6-.7-.9-.9-.5-.3-.8-.3c-.2,0-.5,0-.9,0h-2v5.7h-1.7ZM448.1,437.8h3.7c.8,0,1.4,0,1.8-.2s.8-.4,1-.8.3-.7.3-1.2c0-.6-.2-1.1-.7-1.5s-1.1-.6-2.1-.6h-4.1v4.3Z"/>
    <path d="M458.6,440.4c0-1.7.5-3,1.4-3.8.8-.7,1.8-1,2.9-1s2.3.4,3.1,1.3,1.2,2,1.2,3.5-.2,2.1-.5,2.8-.9,1.2-1.6,1.6-1.4.6-2.3.6c-1.3,0-2.4-.4-3.2-1.3s-1.2-2-1.2-3.6ZM460.2,440.4c0,1.2.3,2.1.8,2.7s1.2.9,2,.9,1.4-.3,2-.9.8-1.5.8-2.7-.3-2-.8-2.6-1.2-.9-2-.9-1.4.3-2,.9-.8,1.5-.8,2.7Z"/>
    <path d="M470.9,445l-2.9-9.3h1.6l1.5,5.4.6,2c0,0,.2-.7.5-1.9l1.5-5.5h1.6l1.4,5.4.5,1.8.5-1.8,1.6-5.4h1.5l-2.9,9.3h-1.6l-1.5-5.6-.4-1.6-1.9,7.2h-1.7Z"/>
    <path d="M481.6,442.3l1.6-.2c0,.6.3,1.1.7,1.4s1,.5,1.7.5,1.3-.1,1.6-.4.5-.6.5-1-.2-.6-.5-.8c-.2-.1-.8-.3-1.6-.5-1.2-.3-2-.5-2.4-.8s-.8-.5-1-.9-.3-.8-.3-1.3,0-.8.3-1.2.4-.6.8-.9c.2-.2.6-.3,1-.5s.9-.2,1.4-.2c.7,0,1.4.1,1.9.3s1,.5,1.2.9.4.8.5,1.4l-1.5.2c0-.5-.3-.9-.6-1.1s-.8-.4-1.4-.4-1.2.1-1.6.4-.5.5-.5.8,0,.4.2.6c.1.2.3.3.6.4.2,0,.6.2,1.4.4,1.1.3,1.9.5,2.3.7s.8.5,1,.8.4.8.4,1.4-.2,1-.5,1.5-.8.8-1.3,1.1-1.2.4-2,.4c-1.2,0-2.1-.3-2.8-.8s-1-1.3-1.2-2.2Z"/>
  </g>
  <g>
    <path d="M352.3,385.6c.7,0,1.3-.2,1.7-.6.4-.4.7-.9.9-1.5.1-.6.2-1.7.2-3.2,0-1.5,0-2.5,0-3,0-.8.2-1.4.5-1.8.2-.5.5-.8.8-1.1.3-.3.7-.5,1.3-.6.3,0,.9-.1,1.7-.1h.8v2.1h-.4c-.9,0-1.6.2-1.9.5-.3.3-.5,1.1-.5,2.3,0,2.4,0,3.9-.2,4.5-.2,1-.4,1.7-.8,2.3-.4.5-1,1-1.9,1.4,1,.4,1.7,1.1,2.2,1.9s.7,2.3.7,4.2,0,2.8,0,3.2c0,.6.3,1.1.6,1.3.3.2.9.4,1.7.4h.4v2.1h-.8c-.9,0-1.5,0-1.9-.2-.6-.2-1.1-.5-1.4-1-.4-.5-.6-1.1-.7-1.8-.1-.7-.2-1.9-.2-3.5,0-1.6,0-2.8-.2-3.4-.1-.6-.4-1.1-.9-1.5-.4-.4-1-.6-1.7-.6v-2.2Z"/>
    <path d="M361.6,385.6c.7,0,1.3-.2,1.7-.6.4-.4.7-.9.9-1.5.1-.6.2-1.7.2-3.2,0-1.5,0-2.5,0-3,0-.8.2-1.4.5-1.8.2-.5.5-.8.8-1.1.3-.3.7-.5,1.3-.6.3,0,.9-.1,1.7-.1h.8v2.1h-.4c-.9,0-1.6.2-1.9.5-.3.3-.5,1.1-.5,2.3,0,2.4,0,3.9-.2,4.5-.2,1-.4,1.7-.8,2.3-.4.5-1,1-1.9,1.4,1,.4,1.7,1.1,2.2,1.9s.7,2.3.7,4.2,0,2.8,0,3.2c0,.6.3,1.1.6,1.3.3.2.9.4,1.7.4h.4v2.1h-.8c-.9,0-1.5,0-1.9-.2-.6-.2-1.1-.5-1.4-1-.4-.5-.6-1.1-.7-1.8-.1-.7-.2-1.9-.2-3.5,0-1.6,0-2.8-.2-3.4-.1-.6-.4-1.1-.9-1.5-.4-.4-1-.6-1.7-.6v-2.2Z"/>
    <path d="M376.1,394l-5.5-14.5h2.6l3.1,8.7c.3.9.6,1.9.9,2.9.2-.8.5-1.7.9-2.8l3.2-8.9h2.5l-5.5,14.5h-2.3Z"/>
    <path d="M385.5,387.6l2.5-.2c.1,1,.4,1.8.8,2.5.4.6,1.1,1.2,2,1.6.9.4,1.9.6,3.1.6s1.9-.2,2.7-.5c.8-.3,1.4-.7,1.7-1.2.4-.5.6-1.1.6-1.7s-.2-1.2-.5-1.6c-.4-.5-1-.9-1.8-1.2-.5-.2-1.7-.5-3.6-1-1.8-.4-3.1-.9-3.9-1.3-1-.5-1.7-1.1-2.1-1.9-.5-.7-.7-1.6-.7-2.5s.3-2,.9-2.8c.6-.9,1.4-1.5,2.5-2,1.1-.5,2.3-.7,3.7-.7s2.8.2,3.9.7,2,1.2,2.6,2.1c.6.9.9,2,1,3.2l-2.5.2c-.1-1.3-.6-2.2-1.4-2.9-.8-.6-2-1-3.5-1s-2.8.3-3.5.9c-.7.6-1.1,1.3-1.1,2.1s.3,1.3.8,1.8c.5.5,1.8.9,4,1.4,2.2.5,3.6.9,4.4,1.3,1.2.5,2,1.2,2.6,2,.6.8.8,1.8.8,2.9s-.3,2.1-.9,3c-.6.9-1.5,1.7-2.6,2.2-1.1.5-2.4.8-3.9.8s-3.3-.3-4.6-.8c-1.2-.5-2.2-1.3-2.9-2.4-.7-1.1-1.1-2.3-1.1-3.6Z"/>
    <path d="M404.7,394v-20h2.5v7.2c1.1-1.3,2.6-2,4.3-2s2,.2,2.8.6,1.4,1,1.7,1.8c.3.7.5,1.8.5,3.3v9.2h-2.5v-9.2c0-1.2-.3-2.1-.8-2.7s-1.3-.8-2.3-.8-1.4.2-2.1.6c-.6.4-1.1.9-1.4,1.5-.3.6-.4,1.5-.4,2.7v7.9h-2.5Z"/>
    <path d="M429.8,392.2c-.9.8-1.8,1.3-2.6,1.6-.8.3-1.7.5-2.7.5-1.6,0-2.8-.4-3.7-1.2-.9-.8-1.3-1.8-1.3-3s.2-1.4.5-1.9c.3-.6.7-1.1,1.3-1.4.5-.4,1.1-.6,1.8-.8.5-.1,1.2-.3,2.2-.4,2-.2,3.4-.5,4.4-.8,0-.3,0-.6,0-.6,0-1-.2-1.7-.7-2.1-.6-.6-1.6-.8-2.8-.8s-2,.2-2.6.6c-.6.4-1,1.1-1.2,2.2l-2.4-.3c.2-1,.6-1.9,1.1-2.5.5-.6,1.2-1.1,2.2-1.5.9-.3,2-.5,3.3-.5s2.2.1,3,.4c.8.3,1.3.7,1.7,1.1.4.4.6,1,.8,1.7,0,.4.1,1.2.1,2.3v3.3c0,2.3,0,3.7.2,4.3.1.6.3,1.2.6,1.7h-2.6c-.3-.5-.4-1.1-.5-1.8ZM429.6,386.7c-.9.4-2.2.7-4,.9-1,.1-1.7.3-2.1.5-.4.2-.7.4-1,.8-.2.4-.3.7-.3,1.2,0,.7.2,1.2.7,1.6.5.4,1.2.7,2.2.7s1.8-.2,2.5-.6c.7-.4,1.3-1,1.6-1.7.3-.6.4-1.4.4-2.5v-.9Z"/>
    <path d="M435.9,399.6v-20.1h2.2v1.9c.5-.7,1.1-1.3,1.8-1.7.7-.4,1.5-.6,2.4-.6s2.3.3,3.3,1c.9.6,1.7,1.5,2.1,2.7.5,1.2.7,2.4.7,3.8s-.3,2.8-.8,4-1.3,2.1-2.3,2.7c-1,.6-2.1,1-3.2,1s-1.6-.2-2.2-.5c-.7-.3-1.2-.8-1.6-1.3v7.1h-2.5ZM438.1,386.8c0,1.9.4,3.2,1.1,4.1.8.9,1.7,1.3,2.7,1.3s2-.5,2.8-1.4c.8-.9,1.2-2.4,1.2-4.3s-.4-3.2-1.1-4.2c-.8-.9-1.7-1.4-2.7-1.4s-2,.5-2.8,1.5c-.8,1-1.2,2.4-1.2,4.3Z"/>
    <path d="M451.5,376.8v-2.8h2.5v2.8h-2.5ZM451.5,394v-14.5h2.5v14.5h-2.5Z"/>
    <path d="M457.7,394v-14.5h2.2v2.1c1.1-1.6,2.6-2.4,4.6-2.4s1.7.2,2.4.5c.7.3,1.3.7,1.6,1.2.4.5.6,1.1.8,1.8,0,.5.1,1.3.1,2.4v8.9h-2.5v-8.8c0-1,0-1.8-.3-2.2-.2-.5-.5-.9-1-1.2-.5-.3-1.1-.4-1.7-.4-1,0-2,.3-2.7,1-.8.7-1.1,1.9-1.1,3.8v7.9h-2.5Z"/>
    <path d="M472.8,395.2l2.4.4c.1.7.4,1.3.8,1.6.6.5,1.4.7,2.5.7s2-.2,2.6-.7c.6-.5,1-1.1,1.3-1.9.1-.5.2-1.6.2-3.2-1.1,1.3-2.4,1.9-4,1.9s-3.5-.7-4.6-2.2c-1.1-1.4-1.6-3.2-1.6-5.2s.3-2.7.8-3.8c.5-1.2,1.2-2.1,2.2-2.7,1-.6,2.1-1,3.4-1s3.1.7,4.2,2.1v-1.8h2.3v12.6c0,2.3-.2,3.9-.7,4.8-.5.9-1.2,1.7-2.2,2.2s-2.2.8-3.7.8-3.1-.4-4.2-1.2-1.6-2-1.5-3.5ZM474.8,386.5c0,1.9.4,3.3,1.1,4.2.8.9,1.7,1.3,2.8,1.3s2.1-.4,2.8-1.3c.8-.9,1.1-2.2,1.1-4.1s-.4-3.1-1.2-4c-.8-.9-1.7-1.4-2.9-1.4s-2,.4-2.8,1.3-1.1,2.2-1.1,4Z"/>
    <path d="M488.2,387.6l2.5-.2c.1,1,.4,1.8.8,2.5.4.6,1.1,1.2,2,1.6.9.4,1.9.6,3.1.6s1.9-.2,2.7-.5c.8-.3,1.4-.7,1.7-1.2.4-.5.6-1.1.6-1.7s-.2-1.2-.5-1.6c-.4-.5-1-.9-1.8-1.2-.5-.2-1.7-.5-3.6-1-1.8-.4-3.1-.9-3.9-1.3-1-.5-1.7-1.1-2.1-1.9-.5-.7-.7-1.6-.7-2.5s.3-2,.9-2.8c.6-.9,1.4-1.5,2.5-2,1.1-.5,2.3-.7,3.7-.7s2.8.2,3.9.7,2,1.2,2.6,2.1c.6.9.9,2,1,3.2l-2.5.2c-.1-1.3-.6-2.2-1.4-2.9-.8-.6-2-1-3.5-1s-2.8.3-3.5.9c-.7.6-1.1,1.3-1.1,2.1s.3,1.3.8,1.8c.5.5,1.8.9,4,1.4,2.2.5,3.6.9,4.4,1.3,1.2.5,2,1.2,2.6,2,.6.8.8,1.8.8,2.9s-.3,2.1-.9,3c-.6.9-1.5,1.7-2.6,2.2-1.1.5-2.4.8-3.9.8s-3.3-.3-4.6-.8c-1.2-.5-2.2-1.3-2.9-2.4-.7-1.1-1.1-2.3-1.1-3.6Z"/>
    <path d="M512.9,391.8l.4,2.2c-.7.1-1.3.2-1.9.2-.9,0-1.6-.1-2.1-.4s-.8-.7-1-1.1c-.2-.5-.3-1.4-.3-2.9v-8.4h-1.8v-1.9h1.8v-3.6l2.4-1.5v5.1h2.5v1.9h-2.5v8.5c0,.7,0,1.2.1,1.4,0,.2.2.4.4.5.2.1.5.2.8.2s.6,0,1.1,0Z"/>
    <path d="M515.3,376.8v-2.8h2.5v2.8h-2.5ZM515.3,394v-14.5h2.5v14.5h-2.5Z"/>
    <path d="M526.9,391.8l.4,2.2c-.7.1-1.3.2-1.9.2-.9,0-1.6-.1-2.1-.4s-.8-.7-1-1.1c-.2-.5-.3-1.4-.3-2.9v-8.4h-1.8v-1.9h1.8v-3.6l2.4-1.5v5.1h2.5v1.9h-2.5v8.5c0,.7,0,1.2.1,1.4,0,.2.2.4.4.5.2.1.5.2.8.2s.6,0,1.1,0Z"/>
    <path d="M538.7,388.7l2.4.3c-.3,1.7-.9,3-2,3.9-1.1.9-2.4,1.4-4,1.4s-3.6-.6-4.8-1.9c-1.2-1.3-1.8-3.2-1.8-5.6s.3-2.9.8-4.1,1.3-2.1,2.4-2.6c1.1-.6,2.2-.9,3.5-.9s2.9.4,3.9,1.2c1,.8,1.6,1.9,1.9,3.4l-2.4.4c-.2-1-.6-1.7-1.2-2.2-.6-.5-1.3-.7-2.1-.7-1.2,0-2.2.4-3,1.3-.8.9-1.2,2.3-1.2,4.2s.4,3.4,1.1,4.3c.7.9,1.7,1.3,2.9,1.3s1.8-.3,2.4-.9c.6-.6,1.1-1.5,1.2-2.7Z"/>
    <path d="M543.3,394v-20h2.5v7.2c1.1-1.3,2.6-2,4.3-2s2,.2,2.8.6,1.4,1,1.7,1.8c.3.7.5,1.8.5,3.3v9.2h-2.5v-9.2c0-1.2-.3-2.1-.8-2.7s-1.3-.8-2.3-.8-1.4.2-2.1.6c-.6.4-1.1.9-1.4,1.5-.3.6-.4,1.5-.4,2.7v7.9h-2.5Z"/>
    <path d="M568.8,389.3l2.5.3c-.4,1.5-1.1,2.6-2.2,3.5-1.1.8-2.5,1.2-4.2,1.2s-3.8-.7-5.1-2c-1.2-1.3-1.9-3.1-1.9-5.5s.6-4.3,1.9-5.7c1.3-1.3,2.9-2,4.9-2s3.5.7,4.8,2c1.2,1.3,1.8,3.2,1.8,5.6s0,.4,0,.7h-10.8c0,1.6.5,2.8,1.4,3.7.8.8,1.8,1.3,3,1.3s1.7-.2,2.3-.7c.6-.5,1.1-1.2,1.5-2.3ZM560.7,385.4h8.1c-.1-1.2-.4-2.1-.9-2.7-.8-.9-1.8-1.4-3-1.4s-2.1.4-2.9,1.1c-.8.8-1.2,1.8-1.3,3Z"/>
    <path d="M573.4,389.7l2.4-.4c.1,1,.5,1.7,1.1,2.2.6.5,1.5.8,2.6.8s2-.2,2.5-.7c.5-.5.8-1,.8-1.6s-.2-1-.7-1.3c-.3-.2-1.2-.5-2.5-.8-1.8-.5-3.1-.8-3.8-1.2-.7-.3-1.2-.8-1.6-1.4-.4-.6-.5-1.2-.5-1.9s.1-1.2.4-1.8c.3-.6.7-1,1.2-1.4.4-.3.9-.5,1.6-.7.7-.2,1.4-.3,2.1-.3,1.1,0,2.1.2,3,.5s1.5.8,1.9,1.3.7,1.3.8,2.2l-2.4.3c-.1-.7-.4-1.3-1-1.8-.5-.4-1.3-.6-2.2-.6s-1.9.2-2.4.6c-.5.4-.7.8-.7,1.3s.1.6.3.9c.2.3.5.5.9.7.2,0,1,.3,2.2.6,1.7.5,3,.8,3.6,1.1.7.3,1.2.7,1.6,1.3.4.6.6,1.3.6,2.1s-.2,1.6-.7,2.3-1.2,1.3-2.1,1.7-1.9.6-3.1.6c-1.9,0-3.3-.4-4.3-1.2-1-.8-1.6-1.9-1.9-3.5Z"/>
    <path d="M595.1,385.6v2.2c-.7,0-1.3.2-1.7.6-.4.4-.7.9-.9,1.5-.1.6-.2,1.7-.2,3.2,0,1.5,0,2.5,0,3,0,.8-.2,1.4-.5,1.9-.2.5-.5.8-.8,1.1-.3.3-.7.5-1.3.6-.3.1-.9.2-1.7.2h-.8v-2.1h.4c.9,0,1.6-.2,1.9-.5.3-.3.5-1.1.5-2.3,0-2.3,0-3.7.1-4.3.1-1,.4-1.8.9-2.4.4-.6,1.1-1.1,1.9-1.4-1-.5-1.8-1.2-2.2-2-.4-.8-.6-2.2-.6-4.2s0-2.8,0-3.2c0-.6-.2-1-.5-1.3-.3-.2-.9-.4-1.7-.4h-.4v-2.1h.8c.9,0,1.5,0,1.9.2.6.2,1.1.5,1.4,1,.4.5.6,1.1.7,1.8.1.7.2,1.9.2,3.5,0,1.6,0,2.8.2,3.4.1.6.4,1.1.9,1.5.4.4,1,.6,1.7.6Z"/>
    <path d="M604.5,385.6v2.2c-.7,0-1.3.2-1.7.6-.4.4-.7.9-.9,1.5-.1.6-.2,1.7-.2,3.2,0,1.5,0,2.5,0,3,0,.8-.2,1.4-.5,1.9-.2.5-.5.8-.8,1.1-.3.3-.7.5-1.3.6-.3.1-.9.2-1.7.2h-.8v-2.1h.4c.9,0,1.6-.2,1.9-.5.3-.3.5-1.1.5-2.3,0-2.3,0-3.7.1-4.3.1-1,.4-1.8.9-2.4.4-.6,1.1-1.1,1.9-1.4-1-.5-1.8-1.2-2.2-2-.4-.8-.6-2.2-.6-4.2s0-2.8,0-3.2c0-.6-.2-1-.5-1.3-.3-.2-.9-.4-1.7-.4h-.4v-2.1h.8c.9,0,1.5,0,1.9.2.6.2,1.1.5,1.4,1,.4.5.6,1.1.7,1.8.1.7.2,1.9.2,3.5,0,1.6,0,2.8.2,3.4.1.6.4,1.1.9,1.5.4.4,1,.6,1.7.6Z"/>
    <path d="M617.1,389.9h1.6c0,.5.3,1,.5,1.4s.7.7,1.3,1,1.2.4,2,.4,1.2,0,1.7-.3.9-.5,1.1-.8.4-.7.4-1.1-.1-.8-.4-1.1-.6-.6-1.2-.8c-.3-.1-1.1-.3-2.3-.6s-2-.6-2.5-.8c-.6-.3-1.1-.7-1.4-1.2s-.5-1-.5-1.6.2-1.3.6-1.8.9-1,1.6-1.3,1.5-.4,2.4-.4,1.8.2,2.5.5,1.3.8,1.7,1.4.6,1.3.6,2h-1.6c0-.7-.4-1.3-.9-1.7s-1.3-.6-2.2-.6-1.8.2-2.3.6-.7.8-.7,1.4.2.8.5,1.1c.3.3,1.2.6,2.6.9s2.3.6,2.9.8c.8.3,1.3.8,1.7,1.3s.5,1.1.5,1.8-.2,1.3-.6,1.9-1,1.1-1.7,1.4-1.6.5-2.5.5-2.1-.2-2.9-.5-1.4-.9-1.9-1.5-.7-1.5-.7-2.3Z"/>
    <path d="M633,392.6l.2,1.4c-.4,0-.8.1-1.2.1-.6,0-1,0-1.3-.3s-.5-.4-.7-.7-.2-.9-.2-1.9v-5.4h-1.2v-1.2h1.2v-2.3l1.6-.9v3.3h1.6v1.2h-1.6v5.5c0,.5,0,.7,0,.9s.1.2.3.3.3.1.5.1.4,0,.7,0Z"/>
    <path d="M634.5,383v-1.8h1.6v1.8h-1.6ZM634.5,394v-9.3h1.6v9.3h-1.6Z"/>
    <path d="M642,392.6l.2,1.4c-.4,0-.8.1-1.2.1-.6,0-1,0-1.3-.3s-.5-.4-.7-.7-.2-.9-.2-1.9v-5.4h-1.2v-1.2h1.2v-2.3l1.6-.9v3.3h1.6v1.2h-1.6v5.5c0,.5,0,.7,0,.9s.1.2.3.3c.1,0,.3.1.5.1s.4,0,.7,0Z"/>
    <path d="M649.6,390.6l1.6.2c-.2,1.1-.6,1.9-1.3,2.5-.7.6-1.6.9-2.6.9s-2.3-.4-3.1-1.3-1.2-2-1.2-3.6.2-1.9.5-2.6.8-1.3,1.5-1.7,1.4-.6,2.2-.6,1.8.3,2.5.8,1.1,1.2,1.2,2.2l-1.5.2c-.1-.6-.4-1.1-.8-1.4s-.8-.5-1.3-.5c-.8,0-1.4.3-1.9.9s-.7,1.5-.7,2.7.2,2.2.7,2.7,1.1.9,1.9.9,1.1-.2,1.6-.6c.4-.4.7-1,.8-1.8Z"/>
    <path d="M652.5,394v-12.9h1.6v4.6c.7-.9,1.7-1.3,2.8-1.3s1.3.1,1.8.4.9.6,1.1,1.1c.2.5.3,1.2.3,2.1v5.9h-1.6v-5.9c0-.8-.2-1.4-.5-1.7-.3-.4-.8-.5-1.5-.5s-.9.1-1.3.4c-.4.2-.7.6-.9,1s-.3,1-.3,1.7v5.1h-1.6Z"/>
    <path d="M668.9,391l1.6.2c-.3,1-.7,1.7-1.4,2.2s-1.6.8-2.7.8-2.4-.4-3.2-1.3c-.8-.8-1.2-2-1.2-3.5s.4-2.8,1.2-3.7,1.9-1.3,3.1-1.3,2.3.4,3.1,1.3,1.2,2,1.2,3.6,0,.2,0,.4h-7c0,1,.3,1.8.9,2.4s1.2.8,2,.8,1.1-.2,1.5-.5.7-.8,1-1.5ZM663.7,388.5h5.2c0-.8-.3-1.4-.6-1.8-.5-.6-1.2-.9-2-.9s-1.3.2-1.8.7-.8,1.1-.8,2Z"/>
    <path d="M671.9,391.2l1.6-.2c0,.6.3,1.1.7,1.4s1,.5,1.7.5,1.3-.1,1.6-.4.5-.6.5-1-.2-.6-.5-.8c-.2-.1-.8-.3-1.6-.5-1.2-.3-2-.5-2.4-.8-.4-.2-.8-.5-1-.9s-.3-.8-.3-1.3,0-.8.3-1.2c.2-.4.4-.6.8-.9.2-.2.6-.3,1-.5s.9-.2,1.4-.2c.7,0,1.4.1,1.9.3.6.2,1,.5,1.2.9s.4.8.5,1.4l-1.5.2c0-.5-.3-.9-.6-1.1-.3-.3-.8-.4-1.4-.4s-1.2.1-1.6.4-.5.5-.5.8,0,.4.2.6c.1.2.3.3.6.4.2,0,.6.2,1.4.4,1.1.3,1.9.5,2.3.7.4.2.8.5,1,.8s.4.8.4,1.4-.2,1-.5,1.5c-.3.5-.8.8-1.3,1.1s-1.2.4-2,.4c-1.2,0-2.1-.3-2.8-.8-.6-.5-1-1.3-1.2-2.2Z"/>
  </g>
  <line x1="654.8" y1="181.4" x2="654.8" y2="490.4" fill="none" stroke="#000" stroke-miterlimit="10"/>
  <g>
    <path d="M227.6,113.5c.7,0,1.3-.2,1.7-.6.4-.4.7-.9.9-1.5.1-.6.2-1.7.2-3.2,0-1.5,0-2.5,0-3,0-.8.2-1.4.5-1.8.2-.5.5-.8.8-1.1.3-.3.7-.5,1.3-.6.3,0,.9-.1,1.7-.1h.8v2.1h-.4c-.9,0-1.6.2-1.9.5-.3.3-.5,1.1-.5,2.3,0,2.4,0,3.9-.2,4.5-.2,1-.4,1.7-.8,2.3-.4.5-1,1-1.9,1.4,1,.4,1.7,1.1,2.2,1.9s.7,2.3.7,4.2,0,2.8,0,3.2c0,.6.3,1.1.6,1.3.3.2.9.4,1.7.4h.4v2.1h-.8c-.9,0-1.5,0-1.9-.2-.6-.2-1.1-.5-1.4-1-.4-.5-.6-1.1-.7-1.8-.1-.7-.2-1.9-.2-3.5,0-1.6,0-2.8-.2-3.4-.1-.6-.4-1.1-.9-1.5-.4-.4-1-.6-1.7-.6v-2.2Z"/>
    <path d="M236.9,113.5c.7,0,1.3-.2,1.7-.6.4-.4.7-.9.9-1.5.1-.6.2-1.7.2-3.2,0-1.5,0-2.5,0-3,0-.8.2-1.4.5-1.8.2-.5.5-.8.8-1.1.3-.3.7-.5,1.3-.6.3,0,.9-.1,1.7-.1h.8v2.1h-.4c-.9,0-1.6.2-1.9.5-.3.3-.5,1.1-.5,2.3,0,2.4,0,3.9-.2,4.5-.2,1-.4,1.7-.8,2.3-.4.5-1,1-1.9,1.4,1,.4,1.7,1.1,2.2,1.9s.7,2.3.7,4.2,0,2.8,0,3.2c0,.6.3,1.1.6,1.3.3.2.9.4,1.7.4h.4v2.1h-.8c-.9,0-1.5,0-1.9-.2-.6-.2-1.1-.5-1.4-1-.4-.5-.6-1.1-.7-1.8-.1-.7-.2-1.9-.2-3.5,0-1.6,0-2.8-.2-3.4-.1-.6-.4-1.1-.9-1.5-.4-.4-1-.6-1.7-.6v-2.2Z"/>
    <path d="M251.4,121.9l-5.5-14.5h2.6l3.1,8.7c.3.9.6,1.9.9,2.9.2-.8.5-1.7.9-2.8l3.2-8.9h2.5l-5.5,14.5h-2.3Z"/>
    <path d="M260.7,115.5l2.5-.2c.1,1,.4,1.8.8,2.5.4.6,1.1,1.2,2,1.6.9.4,1.9.6,3.1.6s1.9-.2,2.7-.5c.8-.3,1.4-.7,1.7-1.2.4-.5.6-1.1.6-1.7s-.2-1.2-.5-1.6c-.4-.5-1-.9-1.8-1.2-.5-.2-1.7-.5-3.6-1-1.8-.4-3.1-.9-3.9-1.3-1-.5-1.7-1.1-2.1-1.9-.5-.7-.7-1.6-.7-2.5s.3-2,.9-2.8c.6-.9,1.4-1.5,2.5-2,1.1-.5,2.3-.7,3.7-.7s2.8.2,3.9.7,2,1.2,2.6,2.1c.6.9.9,2,1,3.2l-2.5.2c-.1-1.3-.6-2.2-1.4-2.9-.8-.6-2-1-3.5-1s-2.8.3-3.5.9c-.7.6-1.1,1.3-1.1,2.1s.3,1.3.8,1.8c.5.5,1.8.9,4,1.4,2.2.5,3.6.9,4.4,1.3,1.2.5,2,1.2,2.6,2,.6.8.8,1.8.8,2.9s-.3,2.1-.9,3c-.6.9-1.5,1.7-2.6,2.2-1.1.5-2.4.8-3.9.8s-3.3-.3-4.6-.8c-1.2-.5-2.2-1.3-2.9-2.4-.7-1.1-1.1-2.3-1.1-3.6Z"/>
    <path d="M280,121.9v-20h2.5v7.2c1.1-1.3,2.6-2,4.3-2s2,.2,2.8.6,1.4,1,1.7,1.8c.3.7.5,1.8.5,3.3v9.2h-2.5v-9.2c0-1.2-.3-2.1-.8-2.7s-1.3-.8-2.3-.8-1.4.2-2.1.6c-.6.4-1.1.9-1.4,1.5-.3.6-.4,1.5-.4,2.7v7.9h-2.5Z"/>
    <path d="M305,120.1c-.9.8-1.8,1.3-2.6,1.6-.8.3-1.7.5-2.7.5-1.6,0-2.8-.4-3.7-1.2-.9-.8-1.3-1.8-1.3-3s.2-1.4.5-1.9c.3-.6.7-1.1,1.3-1.4.5-.4,1.1-.6,1.8-.8.5-.1,1.2-.3,2.2-.4,2-.2,3.4-.5,4.4-.8,0-.3,0-.6,0-.6,0-1-.2-1.7-.7-2.1-.6-.6-1.6-.8-2.8-.8s-2,.2-2.6.6c-.6.4-1,1.1-1.2,2.2l-2.4-.3c.2-1,.6-1.9,1.1-2.5.5-.6,1.2-1.1,2.2-1.5.9-.3,2-.5,3.3-.5s2.2.1,3,.4c.8.3,1.3.7,1.7,1.1.4.4.6,1,.8,1.7,0,.4.1,1.2.1,2.3v3.3c0,2.3,0,3.7.2,4.3.1.6.3,1.2.6,1.7h-2.6c-.3-.5-.4-1.1-.5-1.8ZM304.8,114.6c-.9.4-2.2.7-4,.9-1,.1-1.7.3-2.1.5-.4.2-.7.4-1,.8-.2.4-.3.7-.3,1.2,0,.7.2,1.2.7,1.6.5.4,1.2.7,2.2.7s1.8-.2,2.5-.6c.7-.4,1.3-1,1.6-1.7.3-.6.4-1.4.4-2.5v-.9Z"/>
    <path d="M311.1,127.5v-20.1h2.2v1.9c.5-.7,1.1-1.3,1.8-1.7.7-.4,1.5-.6,2.4-.6s2.3.3,3.3,1c.9.6,1.7,1.5,2.1,2.7.5,1.2.7,2.4.7,3.8s-.3,2.8-.8,4-1.3,2.1-2.3,2.7c-1,.6-2.1,1-3.2,1s-1.6-.2-2.2-.5c-.7-.3-1.2-.8-1.6-1.3v7.1h-2.5ZM313.4,114.7c0,1.9.4,3.2,1.1,4.1.8.9,1.7,1.3,2.7,1.3s2-.5,2.8-1.4c.8-.9,1.2-2.4,1.2-4.3s-.4-3.2-1.1-4.2c-.8-.9-1.7-1.4-2.7-1.4s-2,.5-2.8,1.5c-.8,1-1.2,2.4-1.2,4.3Z"/>
    <path d="M326.7,104.7v-2.8h2.5v2.8h-2.5ZM326.7,121.9v-14.5h2.5v14.5h-2.5Z"/>
    <path d="M332.9,121.9v-14.5h2.2v2.1c1.1-1.6,2.6-2.4,4.6-2.4s1.7.2,2.4.5c.7.3,1.3.7,1.6,1.2.4.5.6,1.1.8,1.8,0,.5.1,1.3.1,2.4v8.9h-2.5v-8.8c0-1,0-1.8-.3-2.2-.2-.5-.5-.9-1-1.2-.5-.3-1.1-.4-1.7-.4-1,0-2,.3-2.7,1-.8.7-1.1,1.9-1.1,3.8v7.9h-2.5Z"/>
    <path d="M348.1,123.1l2.4.4c.1.7.4,1.3.8,1.6.6.5,1.4.7,2.5.7s2-.2,2.6-.7c.6-.5,1-1.1,1.3-1.9.1-.5.2-1.6.2-3.2-1.1,1.3-2.4,1.9-4,1.9s-3.5-.7-4.6-2.2c-1.1-1.4-1.6-3.2-1.6-5.2s.3-2.7.8-3.8c.5-1.2,1.2-2.1,2.2-2.7,1-.6,2.1-1,3.4-1s3.1.7,4.2,2.1v-1.8h2.3v12.6c0,2.3-.2,3.9-.7,4.8-.5.9-1.2,1.7-2.2,2.2s-2.2.8-3.7.8-3.1-.4-4.2-1.2-1.6-2-1.5-3.5ZM350.1,114.4c0,1.9.4,3.3,1.1,4.2.8.9,1.7,1.3,2.8,1.3s2.1-.4,2.8-1.3c.8-.9,1.1-2.2,1.1-4.1s-.4-3.1-1.2-4c-.8-.9-1.7-1.4-2.9-1.4s-2,.4-2.8,1.3-1.1,2.2-1.1,4Z"/>
    <path d="M363.5,115.5l2.5-.2c.1,1,.4,1.8.8,2.5.4.6,1.1,1.2,2,1.6.9.4,1.9.6,3.1.6s1.9-.2,2.7-.5c.8-.3,1.4-.7,1.7-1.2.4-.5.6-1.1.6-1.7s-.2-1.2-.5-1.6c-.4-.5-1-.9-1.8-1.2-.5-.2-1.7-.5-3.6-1-1.8-.4-3.1-.9-3.9-1.3-1-.5-1.7-1.1-2.1-1.9-.5-.7-.7-1.6-.7-2.5s.3-2,.9-2.8c.6-.9,1.4-1.5,2.5-2,1.1-.5,2.3-.7,3.7-.7s2.8.2,3.9.7,2,1.2,2.6,2.1c.6.9.9,2,1,3.2l-2.5.2c-.1-1.3-.6-2.2-1.4-2.9-.8-.6-2-1-3.5-1s-2.8.3-3.5.9c-.7.6-1.1,1.3-1.1,2.1s.3,1.3.8,1.8c.5.5,1.8.9,4,1.4,2.2.5,3.6.9,4.4,1.3,1.2.5,2,1.2,2.6,2,.6.8.8,1.8.8,2.9s-.3,2.1-.9,3c-.6.9-1.5,1.7-2.6,2.2-1.1.5-2.4.8-3.9.8s-3.3-.3-4.6-.8c-1.2-.5-2.2-1.3-2.9-2.4-.7-1.1-1.1-2.3-1.1-3.6Z"/>
    <path d="M388.1,119.7l.4,2.2c-.7.1-1.3.2-1.9.2-.9,0-1.6-.1-2.1-.4s-.8-.7-1-1.1c-.2-.5-.3-1.4-.3-2.9v-8.4h-1.8v-1.9h1.8v-3.6l2.4-1.5v5.1h2.5v1.9h-2.5v8.5c0,.7,0,1.2.1,1.4,0,.2.2.4.4.5.2.1.5.2.8.2s.6,0,1.1,0Z"/>
    <path d="M390.5,104.7v-2.8h2.5v2.8h-2.5ZM390.5,121.9v-14.5h2.5v14.5h-2.5Z"/>
    <path d="M402.1,119.7l.4,2.2c-.7.1-1.3.2-1.9.2-.9,0-1.6-.1-2.1-.4s-.8-.7-1-1.1c-.2-.5-.3-1.4-.3-2.9v-8.4h-1.8v-1.9h1.8v-3.6l2.4-1.5v5.1h2.5v1.9h-2.5v8.5c0,.7,0,1.2.1,1.4,0,.2.2.4.4.5.2.1.5.2.8.2s.6,0,1.1,0Z"/>
    <path d="M414,116.6l2.4.3c-.3,1.7-.9,3-2,3.9-1.1.9-2.4,1.4-4,1.4s-3.6-.6-4.8-1.9c-1.2-1.3-1.8-3.2-1.8-5.6s.3-2.9.8-4.1,1.3-2.1,2.4-2.6c1.1-.6,2.2-.9,3.5-.9s2.9.4,3.9,1.2c1,.8,1.6,1.9,1.9,3.4l-2.4.4c-.2-1-.6-1.7-1.2-2.2-.6-.5-1.3-.7-2.1-.7-1.2,0-2.2.4-3,1.3-.8.9-1.2,2.3-1.2,4.2s.4,3.4,1.1,4.3c.7.9,1.7,1.3,2.9,1.3s1.8-.3,2.4-.9c.6-.6,1.1-1.5,1.2-2.7Z"/>
    <path d="M418.5,121.9v-20h2.5v7.2c1.1-1.3,2.6-2,4.3-2s2,.2,2.8.6,1.4,1,1.7,1.8c.3.7.5,1.8.5,3.3v9.2h-2.5v-9.2c0-1.2-.3-2.1-.8-2.7s-1.3-.8-2.3-.8-1.4.2-2.1.6c-.6.4-1.1.9-1.4,1.5-.3.6-.4,1.5-.4,2.7v7.9h-2.5Z"/>
    <path d="M444,117.2l2.5.3c-.4,1.5-1.1,2.6-2.2,3.5-1.1.8-2.5,1.2-4.2,1.2s-3.8-.7-5.1-2c-1.2-1.3-1.9-3.1-1.9-5.5s.6-4.3,1.9-5.7c1.3-1.3,2.9-2,4.9-2s3.5.7,4.8,2c1.2,1.3,1.8,3.2,1.8,5.6s0,.4,0,.7h-10.8c0,1.6.5,2.8,1.4,3.7.8.8,1.8,1.3,3,1.3s1.7-.2,2.3-.7c.6-.5,1.1-1.2,1.5-2.3ZM436,113.2h8.1c-.1-1.2-.4-2.1-.9-2.7-.8-.9-1.8-1.4-3-1.4s-2.1.4-2.9,1.1c-.8.8-1.2,1.8-1.3,3Z"/>
    <path d="M448.7,117.6l2.4-.4c.1,1,.5,1.7,1.1,2.2.6.5,1.5.8,2.6.8s2-.2,2.5-.7c.5-.5.8-1,.8-1.6s-.2-1-.7-1.3c-.3-.2-1.2-.5-2.5-.8-1.8-.5-3.1-.8-3.8-1.2-.7-.3-1.2-.8-1.6-1.4-.4-.6-.5-1.2-.5-1.9s.1-1.2.4-1.8c.3-.6.7-1,1.2-1.4.4-.3.9-.5,1.6-.7.7-.2,1.4-.3,2.1-.3,1.1,0,2.1.2,3,.5s1.5.8,1.9,1.3.7,1.3.8,2.2l-2.4.3c-.1-.7-.4-1.3-1-1.8-.5-.4-1.3-.6-2.2-.6s-1.9.2-2.4.6c-.5.4-.7.8-.7,1.3s.1.6.3.9c.2.3.5.5.9.7.2,0,1,.3,2.2.6,1.7.5,3,.8,3.6,1.1.7.3,1.2.7,1.6,1.3.4.6.6,1.3.6,2.1s-.2,1.6-.7,2.3-1.2,1.3-2.1,1.7-1.9.6-3.1.6c-1.9,0-3.3-.4-4.3-1.2-1-.8-1.6-1.9-1.9-3.5Z"/>
    <path d="M470.4,113.5v2.2c-.7,0-1.3.2-1.7.6-.4.4-.7.9-.9,1.5-.1.6-.2,1.7-.2,3.2,0,1.5,0,2.5,0,3,0,.8-.2,1.4-.5,1.9-.2.5-.5.8-.8,1.1-.3.3-.7.5-1.3.6-.3.1-.9.2-1.7.2h-.8v-2.1h.4c.9,0,1.6-.2,1.9-.5.3-.3.5-1.1.5-2.3,0-2.3,0-3.7.1-4.3.1-1,.4-1.8.9-2.4.4-.6,1.1-1.1,1.9-1.4-1-.5-1.8-1.2-2.2-2-.4-.8-.6-2.2-.6-4.2s0-2.8,0-3.2c0-.6-.2-1-.5-1.3-.3-.2-.9-.4-1.7-.4h-.4v-2.1h.8c.9,0,1.5,0,1.9.2.6.2,1.1.5,1.4,1,.4.5.6,1.1.7,1.8.1.7.2,1.9.2,3.5,0,1.6,0,2.8.2,3.4.1.6.4,1.1.9,1.5.4.4,1,.6,1.7.6Z"/>
    <path d="M479.7,113.5v2.2c-.7,0-1.3.2-1.7.6-.4.4-.7.9-.9,1.5-.1.6-.2,1.7-.2,3.2,0,1.5,0,2.5,0,3,0,.8-.2,1.4-.5,1.9-.2.5-.5.8-.8,1.1-.3.3-.7.5-1.3.6-.3.1-.9.2-1.7.2h-.8v-2.1h.4c.9,0,1.6-.2,1.9-.5.3-.3.5-1.1.5-2.3,0-2.3,0-3.7.1-4.3.1-1,.4-1.8.9-2.4.4-.6,1.1-1.1,1.9-1.4-1-.5-1.8-1.2-2.2-2-.4-.8-.6-2.2-.6-4.2s0-2.8,0-3.2c0-.6-.2-1-.5-1.3-.3-.2-.9-.4-1.7-.4h-.4v-2.1h.8c.9,0,1.5,0,1.9.2.6.2,1.1.5,1.4,1,.4.5.6,1.1.7,1.8.1.7.2,1.9.2,3.5,0,1.6,0,2.8.2,3.4.1.6.4,1.1.9,1.5.4.4,1,.6,1.7.6Z"/>
    <path d="M494.9,127.8c-1.4-1.7-2.5-3.7-3.4-6-.9-2.3-1.4-4.7-1.4-7.1s.4-4.2,1.1-6.2c.8-2.3,2.1-4.6,3.8-6.9h1.8c-1.1,1.9-1.8,3.2-2.2,4.1-.6,1.3-1,2.6-1.3,3.9-.4,1.7-.6,3.4-.6,5.1,0,4.4,1.4,8.8,4.1,13.1h-1.8Z"/>
    <path d="M498.4,113.5c.7,0,1.3-.2,1.7-.6.4-.4.7-.9.9-1.5.1-.6.2-1.7.2-3.2,0-1.5,0-2.5,0-3,0-.8.2-1.4.5-1.8.2-.5.5-.8.8-1.1.3-.3.7-.5,1.3-.6.3,0,.9-.1,1.7-.1h.8v2.1h-.4c-.9,0-1.6.2-1.9.5-.3.3-.5,1.1-.5,2.3,0,2.4,0,3.9-.2,4.5-.2,1-.4,1.7-.8,2.3-.4.5-1,1-1.9,1.4,1,.4,1.7,1.1,2.2,1.9s.7,2.3.7,4.2,0,2.8,0,3.2c0,.6.3,1.1.6,1.3.3.2.9.4,1.7.4h.4v2.1h-.8c-.9,0-1.5,0-1.9-.2-.6-.2-1.1-.5-1.4-1-.4-.5-.6-1.1-.7-1.8-.1-.7-.2-1.9-.2-3.5,0-1.6,0-2.8-.2-3.4-.1-.6-.4-1.1-.9-1.5-.4-.4-1-.6-1.7-.6v-2.2Z"/>
    <path d="M507.8,113.5c.7,0,1.3-.2,1.7-.6.4-.4.7-.9.9-1.5.1-.6.2-1.7.2-3.2,0-1.5,0-2.5,0-3,0-.8.2-1.4.5-1.8.2-.5.5-.8.8-1.1.3-.3.7-.5,1.3-.6.3,0,.9-.1,1.7-.1h.8v2.1h-.4c-.9,0-1.6.2-1.9.5-.3.3-.5,1.1-.5,2.3,0,2.4,0,3.9-.2,4.5-.2,1-.4,1.7-.8,2.3-.4.5-1,1-1.9,1.4,1,.4,1.7,1.1,2.2,1.9s.7,2.3.7,4.2,0,2.8,0,3.2c0,.6.3,1.1.6,1.3.3.2.9.4,1.7.4h.4v2.1h-.8c-.9,0-1.5,0-1.9-.2-.6-.2-1.1-.5-1.4-1-.4-.5-.6-1.1-.7-1.8-.1-.7-.2-1.9-.2-3.5,0-1.6,0-2.8-.2-3.4-.1-.6-.4-1.1-.9-1.5-.4-.4-1-.6-1.7-.6v-2.2Z"/>
    <path d="M518.2,121.9v-14.5h2.2v2.1c1.1-1.6,2.6-2.4,4.6-2.4s1.7.2,2.4.5,1.3.7,1.6,1.2c.4.5.6,1.1.8,1.8,0,.5.1,1.3.1,2.4v8.9h-2.5v-8.8c0-1,0-1.8-.3-2.2-.2-.5-.5-.9-1-1.2-.5-.3-1.1-.4-1.7-.4-1,0-2,.3-2.7,1-.8.7-1.1,1.9-1.1,3.8v7.9h-2.5Z"/>
    <path d="M543.7,117.2l2.5.3c-.4,1.5-1.1,2.6-2.2,3.5s-2.5,1.2-4.2,1.2-3.8-.7-5.1-2c-1.2-1.3-1.9-3.1-1.9-5.5s.6-4.3,1.9-5.7c1.3-1.3,2.9-2,4.9-2s3.5.7,4.8,2c1.2,1.3,1.8,3.2,1.8,5.6s0,.4,0,.7h-10.8c0,1.6.5,2.8,1.4,3.7s1.8,1.3,3,1.3,1.7-.2,2.3-.7c.6-.5,1.1-1.2,1.5-2.3ZM535.6,113.2h8.1c-.1-1.2-.4-2.1-.9-2.7-.8-.9-1.8-1.4-3-1.4s-2.1.4-2.9,1.1c-.8.8-1.2,1.8-1.3,3Z"/>
    <path d="M558.8,116.6l2.4.3c-.3,1.7-.9,3-2,3.9s-2.4,1.4-4,1.4-3.6-.6-4.8-1.9-1.8-3.2-1.8-5.6.3-2.9.8-4.1,1.3-2.1,2.4-2.6,2.2-.9,3.5-.9,2.9.4,3.9,1.2c1,.8,1.6,1.9,1.9,3.4l-2.4.4c-.2-1-.6-1.7-1.2-2.2s-1.3-.7-2.1-.7c-1.2,0-2.2.4-3,1.3s-1.2,2.3-1.2,4.2.4,3.4,1.1,4.3c.7.9,1.7,1.3,2.9,1.3s1.8-.3,2.4-.9c.6-.6,1.1-1.5,1.2-2.7Z"/>
    <path d="M563.3,121.9v-20h2.5v11.4l5.8-5.9h3.2l-5.6,5.4,6.1,9.1h-3l-4.8-7.4-1.7,1.7v5.8h-2.5Z"/>
    <path d="M577.6,121.9v-20h6.9c1.6,0,2.7,0,3.6.3,1.1.3,2.1.7,2.9,1.4,1.1.9,1.8,2,2.4,3.4.5,1.4.8,3,.8,4.8s-.2,2.9-.5,4-.8,2.1-1.4,2.9c-.6.8-1.2,1.4-1.8,1.8-.7.4-1.5.8-2.4,1-.9.2-2,.3-3.2.3h-7.2ZM580.3,119.5h4.3c1.3,0,2.4-.1,3.1-.4s1.4-.6,1.8-1c.6-.6,1.1-1.5,1.5-2.5.4-1.1.5-2.3.5-3.9s-.3-3.7-1-4.8c-.7-1.1-1.5-1.9-2.5-2.3-.7-.3-1.9-.4-3.4-.4h-4.2v15.3Z"/>
    <path d="M607.5,117.2l2.5.3c-.4,1.5-1.1,2.6-2.2,3.5s-2.5,1.2-4.2,1.2-3.8-.7-5.1-2c-1.2-1.3-1.9-3.1-1.9-5.5s.6-4.3,1.9-5.7c1.3-1.3,2.9-2,4.9-2s3.5.7,4.8,2c1.2,1.3,1.8,3.2,1.8,5.6s0,.4,0,.7h-10.8c0,1.6.5,2.8,1.4,3.7s1.8,1.3,3,1.3,1.7-.2,2.3-.7c.6-.5,1.1-1.2,1.5-2.3ZM599.4,113.2h8.1c-.1-1.2-.4-2.1-.9-2.7-.8-.9-1.8-1.4-3-1.4s-2.1.4-2.9,1.1c-.8.8-1.2,1.8-1.3,3Z"/>
    <path d="M613.1,127.5v-20.1h2.2v1.9c.5-.7,1.1-1.3,1.8-1.7s1.5-.6,2.4-.6,2.3.3,3.3,1c.9.6,1.7,1.5,2.1,2.7s.7,2.4.7,3.8-.3,2.8-.8,4-1.3,2.1-2.3,2.7-2.1,1-3.2,1-1.6-.2-2.2-.5-1.2-.8-1.6-1.3v7.1h-2.5ZM615.4,114.7c0,1.9.4,3.2,1.1,4.1.8.9,1.7,1.3,2.7,1.3s2-.5,2.8-1.4c.8-.9,1.2-2.4,1.2-4.3s-.4-3.2-1.1-4.2c-.8-.9-1.7-1.4-2.7-1.4s-2,.5-2.8,1.5c-.8,1-1.2,2.4-1.2,4.3Z"/>
    <path d="M634.1,119.7l.4,2.2c-.7.1-1.3.2-1.9.2-.9,0-1.6-.1-2.1-.4s-.8-.7-1-1.1c-.2-.5-.3-1.4-.3-2.9v-8.4h-1.8v-1.9h1.8v-3.6l2.4-1.5v5.1h2.5v1.9h-2.5v8.5c0,.7,0,1.2.1,1.4,0,.2.2.4.4.5.2.1.5.2.8.2s.6,0,1.1,0Z"/>
    <path d="M636.5,121.9v-20h2.5v7.2c1.1-1.3,2.6-2,4.3-2s2,.2,2.8.6,1.4,1,1.7,1.8c.3.7.5,1.8.5,3.3v9.2h-2.5v-9.2c0-1.2-.3-2.1-.8-2.7s-1.3-.8-2.3-.8-1.4.2-2.1.6c-.6.4-1.1.9-1.4,1.5-.3.6-.4,1.5-.4,2.7v7.9h-2.5Z"/>
    <path d="M658.8,113.5v2.2c-.7,0-1.3.2-1.7.6-.4.4-.7.9-.9,1.5-.1.6-.2,1.7-.2,3.2s0,2.5,0,3c0,.8-.2,1.4-.5,1.9-.2.5-.5.8-.8,1.1-.3.3-.7.5-1.3.6-.3.1-.9.2-1.7.2h-.8v-2.1h.4c.9,0,1.6-.2,1.9-.5s.5-1.1.5-2.3c0-2.3,0-3.7.1-4.3.1-1,.4-1.8.9-2.4.4-.6,1.1-1.1,1.9-1.4-1-.5-1.8-1.2-2.2-2-.4-.8-.6-2.2-.6-4.2s0-2.8,0-3.2c0-.6-.2-1-.5-1.3-.3-.2-.9-.4-1.7-.4h-.4v-2.1h.8c.9,0,1.5,0,1.9.2.6.2,1.1.5,1.4,1,.4.5.6,1.1.7,1.8.1.7.2,1.9.2,3.5s0,2.8.2,3.4c.1.6.4,1.1.9,1.5.4.4,1,.6,1.7.6Z"/>
    <path d="M668.1,113.5v2.2c-.7,0-1.3.2-1.7.6-.4.4-.7.9-.9,1.5-.1.6-.2,1.7-.2,3.2s0,2.5,0,3c0,.8-.2,1.4-.5,1.9-.2.5-.5.8-.8,1.1-.3.3-.7.5-1.3.6-.3.1-.9.2-1.7.2h-.8v-2.1h.4c.9,0,1.6-.2,1.9-.5s.5-1.1.5-2.3c0-2.3,0-3.7.1-4.3.1-1,.4-1.8.9-2.4.4-.6,1.1-1.1,1.9-1.4-1-.5-1.8-1.2-2.2-2-.4-.8-.6-2.2-.6-4.2s0-2.8,0-3.2c0-.6-.2-1-.5-1.3-.3-.2-.9-.4-1.7-.4h-.4v-2.1h.8c.9,0,1.5,0,1.9.2.6.2,1.1.5,1.4,1,.4.5.6,1.1.7,1.8.1.7.2,1.9.2,3.5s0,2.8.2,3.4c.1.6.4,1.1.9,1.5.4.4,1,.6,1.7.6Z"/>
    <path d="M672.4,127.8h-1.8c2.7-4.4,4.1-8.8,4.1-13.1s-.2-3.4-.6-5.1c-.3-1.4-.7-2.7-1.3-3.9-.4-.8-1.1-2.2-2.2-4.1h1.8c1.7,2.3,3,4.6,3.8,6.9.7,2,1.1,4.1,1.1,6.2s-.5,4.8-1.4,7.1-2.1,4.3-3.4,6Z"/>
    <path d="M690.1,117.8h1.6c0,.5.3,1,.5,1.4.3.4.7.7,1.3,1s1.2.4,2,.4,1.2,0,1.7-.3.9-.5,1.1-.8.4-.7.4-1.1-.1-.8-.4-1.1-.6-.6-1.2-.8c-.3-.1-1.1-.3-2.3-.6s-2-.6-2.5-.8c-.6-.3-1.1-.7-1.4-1.2-.3-.5-.5-1-.5-1.6s.2-1.3.6-1.8.9-1,1.6-1.3,1.5-.4,2.4-.4,1.8.2,2.5.5c.7.3,1.3.8,1.7,1.4s.6,1.3.6,2h-1.6c0-.7-.4-1.3-.9-1.7-.5-.4-1.3-.6-2.2-.6s-1.8.2-2.3.6c-.5.4-.7.8-.7,1.4s.2.8.5,1.1c.3.3,1.2.6,2.6.9s2.3.6,2.9.8c.8.3,1.3.8,1.7,1.3s.5,1.1.5,1.8-.2,1.3-.6,1.9-1,1.1-1.7,1.4c-.7.3-1.6.5-2.5.5s-2.1-.2-2.9-.5c-.8-.3-1.4-.9-1.9-1.5-.4-.7-.7-1.5-.7-2.3Z"/>
    <path d="M705.9,120.5l.2,1.4c-.4,0-.8.1-1.2.1-.6,0-1,0-1.3-.3s-.5-.4-.7-.7-.2-.9-.2-1.9v-5.4h-1.2v-1.2h1.2v-2.3l1.6-.9v3.3h1.6v1.2h-1.6v5.5c0,.5,0,.7,0,.9s.1.2.3.3c.1,0,.3.1.5.1s.4,0,.7,0Z"/>
    <path d="M707.5,110.8v-1.8h1.6v1.8h-1.6ZM707.5,121.9v-9.3h1.6v9.3h-1.6Z"/>
    <path d="M714.9,120.5l.2,1.4c-.4,0-.8.1-1.2.1-.6,0-1,0-1.3-.3s-.5-.4-.7-.7-.2-.9-.2-1.9v-5.4h-1.2v-1.2h1.2v-2.3l1.6-.9v3.3h1.6v1.2h-1.6v5.5c0,.5,0,.7,0,.9s.1.2.3.3c.1,0,.3.1.5.1s.4,0,.7,0Z"/>
    <path d="M722.6,118.5l1.6.2c-.2,1.1-.6,1.9-1.3,2.5s-1.6.9-2.6.9-2.3-.4-3.1-1.3-1.2-2-1.2-3.6.2-1.9.5-2.6.8-1.3,1.5-1.7,1.4-.6,2.2-.6,1.8.3,2.5.8,1.1,1.2,1.2,2.2l-1.5.2c-.1-.6-.4-1.1-.8-1.4s-.8-.5-1.3-.5c-.8,0-1.4.3-1.9.9s-.7,1.5-.7,2.7.2,2.2.7,2.7,1.1.9,1.9.9,1.1-.2,1.6-.6.7-1,.8-1.8Z"/>
    <path d="M725.5,121.9v-12.9h1.6v4.6c.7-.9,1.7-1.3,2.8-1.3s1.3.1,1.8.4.9.6,1.1,1.1c.2.5.3,1.2.3,2.1v5.9h-1.6v-5.9c0-.8-.2-1.4-.5-1.7-.3-.4-.8-.5-1.5-.5s-.9.1-1.3.4c-.4.2-.7.6-.9,1s-.3,1-.3,1.7v5.1h-1.6Z"/>
    <path d="M741.9,118.9l1.6.2c-.3,1-.7,1.7-1.4,2.2s-1.6.8-2.7.8-2.4-.4-3.2-1.3c-.8-.8-1.2-2-1.2-3.5s.4-2.8,1.2-3.7,1.9-1.3,3.1-1.3,2.3.4,3.1,1.3,1.2,2,1.2,3.6,0,.2,0,.4h-7c0,1,.3,1.8.9,2.4s1.2.8,2,.8,1.1-.2,1.5-.5.7-.8,1-1.5ZM736.7,116.3h5.2c0-.8-.3-1.4-.6-1.8-.5-.6-1.2-.9-2-.9s-1.3.2-1.8.7-.8,1.1-.8,2Z"/>
    <path d="M744.9,119.1l1.6-.2c0,.6.3,1.1.7,1.4s1,.5,1.7.5,1.3-.1,1.6-.4.5-.6.5-1-.2-.6-.5-.8c-.2-.1-.8-.3-1.6-.5-1.2-.3-2-.5-2.4-.8-.4-.2-.8-.5-1-.9s-.3-.8-.3-1.3,0-.8.3-1.2c.2-.4.4-.6.8-.9.2-.2.6-.3,1-.5s.9-.2,1.4-.2c.7,0,1.4.1,1.9.3.6.2,1,.5,1.2.9s.4.8.5,1.4l-1.5.2c0-.5-.3-.9-.6-1.1-.3-.3-.8-.4-1.4-.4s-1.2.1-1.6.4-.5.5-.5.8,0,.4.2.6c.1.2.3.3.6.4.2,0,.6.2,1.4.4,1.1.3,1.9.5,2.3.7.4.2.8.5,1,.8s.4.8.4,1.4-.2,1-.5,1.5c-.3.5-.8.8-1.3,1.1s-1.2.4-2,.4c-1.2,0-2.1-.3-2.8-.8-.6-.5-1-1.3-1.2-2.2Z"/>
    <path d="M762.5,125.7c-.9-1.1-1.6-2.4-2.2-3.9s-.9-3-.9-4.6.2-2.7.7-4c.5-1.5,1.3-3,2.4-4.4h1.1c-.7,1.2-1.2,2.1-1.4,2.6-.4.8-.6,1.7-.8,2.5-.3,1.1-.4,2.2-.4,3.3,0,2.8.9,5.6,2.6,8.4h-1.1Z"/>
    <path d="M765.5,110.8v-1.8h1.6v1.8h-1.6ZM765.5,121.9v-9.3h1.6v9.3h-1.6Z"/>
    <path d="M769.5,121.9v-9.3h1.4v1.3c.7-1,1.7-1.5,3-1.5s1.1.1,1.6.3c.5.2.8.5,1.1.8s.4.7.5,1.2c0,.3,0,.8,0,1.5v5.7h-1.6v-5.7c0-.6,0-1.1-.2-1.4s-.3-.6-.7-.8-.7-.3-1.1-.3c-.7,0-1.3.2-1.7.6s-.7,1.2-.7,2.4v5.1h-1.6Z"/>
    <path d="M778.3,122.1l3.7-13.3h1.3l-3.7,13.3h-1.3Z"/>
    <path d="M790.6,118.5l1.6.2c-.2,1.1-.6,1.9-1.3,2.5s-1.6.9-2.6.9-2.3-.4-3.1-1.3-1.2-2-1.2-3.6.2-1.9.5-2.6.8-1.3,1.5-1.7,1.4-.6,2.2-.6,1.8.3,2.5.8,1.1,1.2,1.2,2.2l-1.5.2c-.1-.6-.4-1.1-.8-1.4s-.8-.5-1.3-.5c-.8,0-1.4.3-1.9.9s-.7,1.5-.7,2.7.2,2.2.7,2.7,1.1.9,1.9.9,1.1-.2,1.6-.6.7-1,.8-1.8Z"/>
    <path d="M793.5,121.9v-9.3h1.4v1.3c.3-.5.7-.8,1.2-1.1s1-.4,1.7-.4,1.3.1,1.7.4c.4.3.8.7.9,1.2.7-1.1,1.7-1.6,2.9-1.6s1.6.3,2.1.8.7,1.3.7,2.4v6.4h-1.6v-5.9c0-.6,0-1.1-.2-1.4-.1-.3-.3-.5-.6-.7s-.6-.3-.9-.3c-.7,0-1.2.2-1.6.7s-.7,1.1-.7,2.1v5.4h-1.6v-6.1c0-.7-.1-1.2-.4-1.6s-.7-.5-1.3-.5-.9.1-1.2.4c-.4.2-.7.6-.8,1s-.3,1.1-.3,2v4.8h-1.6Z"/>
    <path d="M809.5,125.7h-1.1c1.8-2.8,2.6-5.6,2.6-8.4s-.1-2.2-.4-3.3c-.2-.9-.5-1.7-.8-2.5-.2-.5-.7-1.4-1.4-2.6h1.1c1.1,1.5,1.9,2.9,2.4,4.4.5,1.3.7,2.6.7,4s-.3,3.1-.9,4.6c-.6,1.5-1.3,2.8-2.2,3.9Z"/>
  </g>
</svg>