<?xml version="1.0" encoding="UTF-8"?>
<svg id="Layer_1" xmlns="http://www.w3.org/2000/svg" version="1.1" viewBox="0 0 904.3 575.4">
  <!-- Generator: Adobe Illustrator 29.1.0, SVG Export Plug-In . SVG Version: 2.1.0 Build 142)  -->
  <path d="M19.8,170.1h223.9c-14.2,147.4,112.2,238.1,112.2,238.1h171.3s136.1-45.4,113.4-238.1h223.9" fill="none" stroke="#000" stroke-miterlimit="10"/>
  <g>
    <path d="M356,408.2s.8,1.2,3.9,4.5" fill="none" stroke="#b3b3b3" stroke-miterlimit="10"/>
    <path d="M368.3,421.4c10.9,10.8,31,29.5,67.5,61.1" fill="none" stroke="#b3b3b3" stroke-dasharray="12.1 12.1" stroke-miterlimit="10"/>
    <path d="M440.5,486.5c1.5,1.3,3,2.6,4.6,3.9l4.2-4.2" fill="none" stroke="#b3b3b3" stroke-miterlimit="10"/>
    <line x1="457.5" y1="478" x2="518.9" y2="416.5" fill="none" stroke="#b3b3b3" stroke-dasharray="11.6 11.6" stroke-miterlimit="10"/>
    <line x1="523" y1="412.4" x2="527.2" y2="408.2" fill="none" stroke="#b3b3b3" stroke-miterlimit="10"/>
  </g>
  <text transform="translate(209.8 445)" font-family="ArialMT, Arial"><tspan x="0" y="0" font-size="28">{{vShapingRows}}</tspan><tspan x="224.2" y="0" font-size="39.8"> </tspan><tspan x="235.2" y="0" font-size="18">Rows</tspan></text>
  <text transform="translate(351.5 394)" font-family="ArialMT, Arial"><tspan x="0" y="0" font-size="28">{{vShapingStitches}}</tspan><tspan x="253.8" y="0" font-size="39.8"> </tspan><tspan x="264.8" y="0" font-size="18">Stitches</tspan></text>
  <line x1="654.8" y1="181.4" x2="654.8" y2="490.4" fill="none" stroke="#000" stroke-miterlimit="10"/>
  <text transform="translate(226.8 121.9)" font-family="ArialMT, Arial"><tspan x="0" y="0" font-size="28">{{vShapingStitches}} ({{neckDepth}})</tspan><tspan x="451.5" y="0" font-size="39.8"> </tspan><tspan x="462.5" y="0" font-size="18">Stitches (in/cm)</tspan></text>
  <text transform="translate(294.8 178.6)" font-family="ArialMT, Arial" font-size="18"><tspan x="0" y="0" xml:space="preserve">{{ShapingStitches}} {{neckDepth}}  lskjlkdfjl j </tspan></text>
  <text transform="translate(323.2 309)" font-family="ArialMT, Arial" font-size="18"><tspan x="0" y="0">{{vShapingStitches}} stitches</tspan></text>
  <text transform="translate(266.5 493.2)" font-family="ArialMT, Arial" font-size="18"><tspan x="0" y="0">{{vShapingRows}} rows</tspan></text>
</svg>